<?xml version="1.0" encoding="iso-8859-1"?>
<!-- Uploaded to: SVG Repo, www.svgrepo.com, Generator: SVG Repo Mixer Tools -->
<svg fill="#000000" height="800px" width="800px" version="1.1" id="Layer_1" xmlns="http://www.w3.org/2000/svg"
     viewBox="0 0 512 512" xml:space="preserve">
<g>
	<g>
		<path d="M376.834,360.608c-41.741,0-75.696,33.955-75.696,75.696S335.092,512,376.834,512s75.696-33.955,75.696-75.696
			S418.575,360.608,376.834,360.608z M376.834,495.179c-32.46,0-58.875-26.415-58.875-58.875s26.415-58.875,58.875-58.875
			s58.875,26.415,58.875,58.875S409.294,495.179,376.834,495.179z"/>
	</g>
</g>
<g>
	<g>
		<path d="M415.865,404.608c-3.581-2.973-8.879-2.481-11.852,1.076l-36.156,43.392l-18.719-18.719
			c-3.285-3.285-8.608-3.285-11.893,0s-3.285,8.608,0,11.893l25.232,25.232c1.577,1.585,3.721,2.464,5.947,2.464
			c0.123,0,0.255,0,0.378-0.008c2.365-0.107,4.567-1.199,6.086-3.014l42.053-50.464
			C419.914,412.887,419.429,407.581,415.865,404.608z"/>
	</g>
</g>
<g>
	<g>
		<path d="M279.199,445.766H85.778c-4.649,0-9.487-4.813-9.487-9.437V57.799c0-4.624,4.862-7.335,9.544-7.335h52.181
			c4.649,0,8.411-3.766,8.411-8.411c0-4.645-3.762-8.411-8.411-8.411H85.836c-13.955,0-26.366,10.255-26.366,24.156v378.53
			c0,13.897,12.378,26.259,26.308,26.259h193.421c4.649,0,8.411-3.762,8.411-8.411C287.61,449.528,283.848,445.766,279.199,445.766z
			"/>
	</g>
</g>
<g>
	<g>
		<path d="M371.667,33.643h-42.004c-4.649,0-8.411,3.766-8.411,8.411c0,4.645,3.762,8.411,8.411,8.411h42.004
			c4.665,0,7.409,2.711,7.409,7.335v269.166c0,4.649,3.762,8.411,8.411,8.411s8.411-3.762,8.411-8.411V57.799
			C395.897,43.897,385.606,33.643,371.667,33.643z"/>
	</g>
</g>
<g>
	<g>
		<path d="M304.431,33.643h-9.462v-9.462C294.969,10.267,284.694,0,270.764,0h-75.647c-13.93,0-26.308,10.267-26.308,24.181v9.462
			h-7.359c-4.649,0-9.462,2.715-9.462,7.359v33.643c0,4.645,4.813,9.462,9.462,9.462h142.982c4.649,0,7.359-4.817,7.359-9.462
			V41.002C311.791,36.357,309.08,33.643,304.431,33.643z M185.63,24.181c0-4.637,4.838-7.359,9.487-7.359h75.647
			c4.731,0,7.384,2.645,7.384,7.359v9.462H185.63V24.181z M294.969,67.285h-126.16V50.464h9.462H287.61h7.359V67.285z"/>
	</g>
</g>
<g>
	<g>
		<path d="M279.199,412.123H119.322c-4.6,0-9.388-4.846-9.388-9.503V91.511c0-4.661,4.821-7.405,9.454-7.405h8.419
			c4.649,0,8.411-3.766,8.411-8.411s-3.762-8.411-8.411-8.411h-8.419c-13.906,0-26.275,10.288-26.275,24.226V402.62
			c0,13.938,12.337,26.324,26.209,26.324h159.877c4.649,0,8.411-3.762,8.411-8.411S283.848,412.123,279.199,412.123z"/>
	</g>
</g>
<g>
	<g>
		<path d="M338.041,67.285h-6.858c-4.649,0-8.411,3.766-8.411,8.411s3.762,8.411,8.411,8.411h6.858c4.657,0,7.392,2.743,7.392,7.405
			v235.454c0,4.649,3.762,8.411,8.411,8.411s8.411-3.762,8.411-8.411V91.511C362.255,77.573,351.971,67.285,338.041,67.285z"/>
	</g>
</g>
<g>
	<g>
		<path d="M228.735,126.16h-92.517c-4.649,0-8.411,3.766-8.411,8.411c0,4.645,3.762,8.411,8.411,8.411h92.517
			c4.649,0,8.411-3.766,8.411-8.411C237.146,129.926,233.384,126.16,228.735,126.16z"/>
	</g>
</g>
<g>
	<g>
		<path d="M321.253,126.16h-50.464c-4.649,0-8.411,3.766-8.411,8.411c0,4.645,3.762,8.411,8.411,8.411h50.464
			c4.649,0,8.411-3.766,8.411-8.411C329.663,129.926,325.901,126.16,321.253,126.16z"/>
	</g>
</g>
<g>
	<g>
		<path d="M321.253,168.214h-50.464c-4.649,0-8.411,3.766-8.411,8.411c0,4.645,3.762,8.411,8.411,8.411h50.464
			c4.649,0,8.411-3.766,8.411-8.411C329.663,171.979,325.901,168.214,321.253,168.214z"/>
	</g>
</g>
<g>
	<g>
		<path d="M321.253,210.267h-50.464c-4.649,0-8.411,3.766-8.411,8.411c0,4.645,3.762,8.411,8.411,8.411h50.464
			c4.649,0,8.411-3.766,8.411-8.411C329.663,214.033,325.901,210.267,321.253,210.267z"/>
	</g>
</g>
<g>
	<g>
		<path d="M321.253,252.32h-50.464c-4.649,0-8.411,3.766-8.411,8.411s3.762,8.411,8.411,8.411h50.464
			c4.649,0,8.411-3.766,8.411-8.411S325.901,252.32,321.253,252.32z"/>
	</g>
</g>
<g>
	<g>
		<path d="M321.253,294.374h-50.464c-4.649,0-8.411,3.762-8.411,8.411s3.762,8.411,8.411,8.411h50.464
			c4.649,0,8.411-3.762,8.411-8.411S325.901,294.374,321.253,294.374z"/>
	</g>
</g>
<g>
	<g>
		<path d="M321.253,336.427h-50.464c-4.649,0-8.411,3.762-8.411,8.411s3.762,8.411,8.411,8.411h50.464
			c4.649,0,8.411-3.762,8.411-8.411S325.901,336.427,321.253,336.427z"/>
	</g>
</g>
<g>
	<g>
		<path d="M228.735,168.214h-92.517c-4.649,0-8.411,3.766-8.411,8.411c0,4.645,3.762,8.411,8.411,8.411h92.517
			c4.649,0,8.411-3.766,8.411-8.411C237.146,171.979,233.384,168.214,228.735,168.214z"/>
	</g>
</g>
<g>
	<g>
		<path d="M228.735,210.267h-92.517c-4.649,0-8.411,3.766-8.411,8.411c0,4.645,3.762,8.411,8.411,8.411h92.517
			c4.649,0,8.411-3.766,8.411-8.411C237.146,214.033,233.384,210.267,228.735,210.267z"/>
	</g>
</g>
<g>
	<g>
		<path d="M228.735,252.32h-92.517c-4.649,0-8.411,3.766-8.411,8.411s3.762,8.411,8.411,8.411h92.517
			c4.649,0,8.411-3.766,8.411-8.411S233.384,252.32,228.735,252.32z"/>
	</g>
</g>
<g>
	<g>
		<path d="M228.735,294.374h-92.517c-4.649,0-8.411,3.762-8.411,8.411s3.762,8.411,8.411,8.411h92.517
			c4.649,0,8.411-3.762,8.411-8.411S233.384,294.374,228.735,294.374z"/>
	</g>
</g>
<g>
	<g>
		<path d="M228.735,336.427h-92.517c-4.649,0-8.411,3.762-8.411,8.411s3.762,8.411,8.411,8.411h92.517
			c4.649,0,8.411-3.762,8.411-8.411S233.384,336.427,228.735,336.427z"/>
	</g>
</g>
</svg>